<?xml version="1.0" encoding="UTF-8"?><svg xmlns="http://www.w3.org/2000/svg" xmlns:xlink="http://www.w3.org/1999/xlink" width="375" zoomAndPan="magnify" viewBox="0 0 375 374.999991" height="374.999991" preserveAspectRatio="xMidYMid meet" version="1.0"><defs><clipPath id="clip-0"><path d="M 112.65625 145.484375 L 131.40625 145.484375 L 131.40625 229.484375 L 112.65625 229.484375 Z M 112.65625 145.484375 " clip-rule="nonzero"/></clipPath><clipPath id="clip-1"><path d="M 241.648438 145.507812 L 260.398438 145.507812 L 260.398438 229.507812 L 241.648438 229.507812 Z M 241.648438 145.507812 " clip-rule="nonzero"/></clipPath></defs><g clip-path="url(#clip-0)"><path fill="rgb(21.958923%, 71.369934%, 100%)" d="M 120.917969 155.382812 C 120.917969 152.355469 123.410156 149.902344 126.480469 149.902344 L 129.183594 149.902344 C 130.414062 149.902344 131.410156 148.917969 131.410156 147.707031 C 131.410156 146.496094 130.414062 145.515625 129.183594 145.515625 L 128.390625 145.515625 C 122.859375 145.515625 118.375 149.933594 118.375 155.382812 L 118.375 175.328125 C 118.375 179.308594 117.089844 183.125 114.230469 185.941406 L 112.65625 187.492188 L 114.230469 189.042969 C 117.089844 191.855469 118.375 195.675781 118.375 199.65625 L 118.375 219.601562 C 118.375 225.050781 122.859375 229.46875 128.390625 229.46875 L 129.183594 229.46875 C 130.414062 229.46875 131.410156 228.484375 131.410156 227.273438 C 131.410156 226.0625 130.414062 225.082031 129.183594 225.082031 L 126.480469 225.082031 C 123.410156 225.082031 120.917969 222.628906 120.917969 219.601562 L 120.917969 199.65625 C 120.917969 195.175781 119.382812 190.925781 116.566406 187.492188 C 119.382812 184.054688 120.917969 179.808594 120.917969 175.328125 L 120.917969 155.382812 " fill-opacity="1" fill-rule="nonzero"/></g><path stroke-linecap="butt" transform="matrix(0.75, 0, 0, 0.75, 37.621503, 143.249991)" fill="none" stroke-linejoin="miter" d="M 185.228633 55.911475 C 190.374466 57.729183 192.947383 61.932308 192.947383 68.510434 L 192.947383 82.296893 C 192.947383 92.765644 188.035924 98.000019 178.20259 98.000019 L 147.671338 98.000019 L 147.671338 21.083347 L 177.275507 21.083347 C 187.103633 21.083347 192.0203 26.317723 192.0203 36.786473 L 192.0203 43.781265 C 192.0203 50.125016 189.754675 54.171891 185.228633 55.911475 Z M 173.093215 32.375015 L 164.301548 32.375015 L 164.301548 52.953141 L 173.093215 52.953141 C 173.73384 52.953141 174.26509 52.708349 174.692174 52.223974 C 175.134882 51.744808 175.35884 51.192724 175.35884 50.572933 L 175.35884 34.750015 C 175.35884 34.114598 175.134882 33.562515 174.692174 33.098973 C 174.26509 32.614598 173.73384 32.375015 173.093215 32.375015 Z M 176.317174 84.21356 L 176.317174 66.968767 C 176.317174 66.33335 176.093215 65.781267 175.650507 65.317725 C 175.223424 64.83335 174.692174 64.593767 174.051548 64.593767 L 164.301548 64.593767 L 164.301548 86.593768 L 174.051548 86.593768 C 174.692174 86.593768 175.223424 86.359393 175.650507 85.895852 C 176.093215 85.411476 176.317174 84.848976 176.317174 84.21356 Z M 254.645304 21.083347 L 241.582803 56.375016 L 257.166137 98.000019 L 240.160928 98.000019 L 228.749469 67.5521 L 223.379677 67.5521 L 223.379677 98.000019 L 206.749467 98.000019 L 206.749467 21.083347 L 223.379677 21.083347 L 223.379677 53.302099 L 227.447385 53.302099 L 239.431761 21.083347 Z M 254.645304 21.083347 " stroke="rgb(21.958923%, 71.369934%, 100%)" stroke-width="2.823775" stroke-opacity="1" stroke-miterlimit="4"/><g clip-path="url(#clip-1)"><path fill="rgb(21.958923%, 71.369934%, 100%)" d="M 252.132812 219.609375 C 252.132812 222.636719 249.644531 225.089844 246.570312 225.089844 L 243.867188 225.089844 C 242.640625 225.089844 241.644531 226.074219 241.644531 227.285156 C 241.644531 228.496094 242.640625 229.476562 243.867188 229.476562 L 244.664062 229.476562 C 250.195312 229.476562 254.679688 225.058594 254.679688 219.609375 L 254.679688 199.664062 C 254.679688 195.683594 255.964844 191.867188 258.820312 189.050781 L 260.394531 187.5 L 258.820312 185.949219 C 255.964844 183.136719 254.679688 179.316406 254.679688 175.335938 L 254.679688 155.390625 C 254.679688 149.941406 250.195312 145.523438 244.664062 145.523438 L 243.867188 145.523438 C 242.640625 145.523438 241.644531 146.507812 241.644531 147.71875 C 241.644531 148.929688 242.640625 149.910156 243.867188 149.910156 L 246.570312 149.910156 C 249.644531 149.910156 252.132812 152.363281 252.132812 155.390625 L 252.132812 175.335938 C 252.132812 179.816406 253.667969 184.0625 256.488281 187.5 C 253.667969 190.9375 252.132812 195.183594 252.132812 199.664062 L 252.132812 219.609375 " fill-opacity="1" fill-rule="nonzero"/></g></svg>