<svg id="visual" viewBox="0 0 960 300" width="960" height="300" xmlns="http://www.w3.org/2000/svg" xmlns:xlink="http://www.w3.org/1999/xlink" version="1.1"><path d="M0 56L12.3 53.7C24.7 51.3 49.3 46.7 74 42C98.7 37.3 123.3 32.7 148 36C172.7 39.3 197.3 50.7 221.8 50.3C246.3 50 270.7 38 295.2 33.3C319.7 28.7 344.3 31.3 369 35.2C393.7 39 418.3 44 443 47C467.7 50 492.3 51 517 49.7C541.7 48.3 566.3 44.7 591 46.3C615.7 48 640.3 55 664.8 54.8C689.3 54.7 713.7 47.3 738.2 47.3C762.7 47.3 787.3 54.7 812 58.8C836.7 63 861.3 64 886 59.2C910.7 54.3 935.3 43.7 947.7 38.3L960 33L960 0L947.7 0C935.3 0 910.7 0 886 0C861.3 0 836.7 0 812 0C787.3 0 762.7 0 738.2 0C713.7 0 689.3 0 664.8 0C640.3 0 615.7 0 591 0C566.3 0 541.7 0 517 0C492.3 0 467.7 0 443 0C418.3 0 393.7 0 369 0C344.3 0 319.7 0 295.2 0C270.7 0 246.3 0 221.8 0C197.3 0 172.7 0 148 0C123.3 0 98.7 0 74 0C49.3 0 24.7 0 12.3 0L0 0Z" fill="#2B83BA" stroke-linecap="round" stroke-linejoin="miter"></path></svg>